<svg width="17" height="16" viewBox="0 0 17 16" fill="none" xmlns="http://www.w3.org/2000/svg">
<path d="M3.38867 1.88103C3.70292 1.7956 4.03358 1.75 4.37488 1.75H13.1249C13.4662 1.75 13.7968 1.7956 14.1111 1.88103C13.7005 1.06211 12.8533 0.5 11.8749 0.5H5.62488C4.64642 0.5 3.79925 1.06211 3.38867 1.88103Z" fill="#999999"/>
<path d="M0.625 8C0.625 6.61929 1.74429 5.5 3.125 5.5H14.375C15.7557 5.5 16.875 6.61929 16.875 8V13C16.875 14.3807 15.7557 15.5 14.375 15.5H3.125C1.74429 15.5 0.625 14.3807 0.625 13V8Z" fill="#999999"/>
<path d="M3.12488 4.25C2.78358 4.25 2.45292 4.2956 2.13867 4.38103C2.54925 3.56211 3.39642 3 4.37488 3H13.1249C14.1033 3 14.9505 3.56211 15.3611 4.38103C15.0468 4.2956 14.7162 4.25 14.3749 4.25H3.12488Z" fill="#999999"/>
</svg>
