<svg width="45" height="44" viewBox="0 0 45 44" fill="none" xmlns="http://www.w3.org/2000/svg">
<rect x="0.833496" y="0.5" width="43" height="43" rx="5.5" fill="#1A1A1A"/>
<rect x="0.833496" y="0.5" width="43" height="43" rx="5.5" stroke="#262626"/>
<g clip-path="url(#clip0_288_4896)">
<path d="M18.6253 30.125C26.1706 30.125 30.2987 23.8723 30.2987 18.4516C30.2987 18.2758 30.2948 18.0961 30.287 17.9203C31.0901 17.3396 31.7831 16.6202 32.3335 15.7961C31.5856 16.1288 30.7915 16.3462 29.9784 16.4406C30.8346 15.9274 31.4756 15.1212 31.7827 14.1715C30.9773 14.6488 30.0965 14.9855 29.178 15.1672C28.5592 14.5096 27.741 14.0743 26.8499 13.9284C25.9588 13.7825 25.0445 13.9342 24.2483 14.3601C23.4521 14.786 22.8183 15.4623 22.445 16.2844C22.0717 17.1066 21.9797 18.0288 22.1831 18.9086C20.5522 18.8267 18.9568 18.4031 17.5001 17.6651C16.0435 16.9271 14.7582 15.8912 13.7276 14.6246C13.2038 15.5277 13.0435 16.5964 13.2794 17.6134C13.5152 18.6304 14.1294 19.5195 14.9972 20.1C14.3457 20.0793 13.7085 19.9039 13.1382 19.5883V19.6391C13.1376 20.5868 13.4652 21.5055 14.0654 22.239C14.6656 22.9725 15.5013 23.4755 16.4304 23.6625C15.8269 23.8276 15.1935 23.8517 14.5792 23.7328C14.8414 24.5479 15.3515 25.2607 16.0383 25.7719C16.7251 26.2831 17.5544 26.5672 18.4104 26.5844C16.9572 27.7259 15.162 28.3451 13.314 28.3422C12.9862 28.3417 12.6588 28.3216 12.3335 28.282C14.2109 29.4865 16.3948 30.1262 18.6253 30.125Z" fill="white"/>
</g>
<defs>
<clipPath id="clip0_288_4896">
<rect width="20" height="20" fill="white" transform="translate(12.3335 12)"/>
</clipPath>
</defs>
</svg>
