<svg width="25" height="25" viewBox="0 0 25 25" fill="none" xmlns="http://www.w3.org/2000/svg">
<path d="M15.2734 17.5817C17.1679 17.357 18.9948 16.9116 20.7276 16.2719C19.2908 14.677 18.4163 12.5656 18.4163 10.25V9.54919C18.4164 9.53281 18.4165 9.51641 18.4165 9.5C18.4165 6.18629 15.7302 3.5 12.4165 3.5C9.1028 3.5 6.4165 6.18629 6.4165 9.5L6.41631 10.25C6.41631 12.5656 5.54178 14.677 4.10498 16.2719C5.83791 16.9116 7.66494 17.357 9.55964 17.5818M15.2734 17.5817C14.3365 17.6928 13.3831 17.75 12.4163 17.75C11.4497 17.75 10.4964 17.6929 9.55964 17.5818M15.2734 17.5817C15.3663 17.8711 15.4165 18.1797 15.4165 18.5C15.4165 20.1569 14.0734 21.5 12.4165 21.5C10.7596 21.5 9.4165 20.1569 9.4165 18.5C9.4165 18.1797 9.46669 17.8712 9.55964 17.5818" stroke="white" stroke-width="1.5" stroke-linecap="round" stroke-linejoin="round"/>
</svg>
