<svg width="167" height="51" viewBox="0 0 167 51" fill="none" xmlns="http://www.w3.org/2000/svg">
<path d="M42.0694 20.57C41.7195 9.61059 32.8392 0.766489 21.8428 0.5C21.5596 0.5 21.3263 0.716522 21.3263 0.999667L21.3097 8.36143C21.3097 8.72785 21.0264 9.01099 20.6599 9.02765C9.69688 9.36076 0.84983 18.2548 0.583252 29.2475C0.583252 29.5306 0.799846 29.7638 1.08309 29.7638L8.43064 29.7805C8.79718 29.7805 9.08042 30.0636 9.09708 30.43C9.44696 41.3894 18.344 50.2335 29.3237 50.5C29.6069 50.5 29.8402 50.2835 29.8402 50.0003L29.8568 42.6386C29.8568 42.2722 30.1401 41.989 30.5066 41.9724C41.4696 41.6226 50.3167 32.7285 50.5833 21.7525C50.5833 21.4694 50.3667 21.2362 50.0834 21.2362L42.7359 21.2195C42.3693 21.2195 42.0861 20.9364 42.0694 20.57ZM29.1237 41.9224C22.8925 41.556 17.8941 36.4927 17.6609 30.2302C17.6442 29.9637 17.4276 29.7472 17.1611 29.7472L9.83017 29.7305C9.44696 29.7305 9.14706 29.4141 9.16372 29.031C9.53027 22.8018 14.5952 17.8051 20.8598 17.572C21.1264 17.5553 21.343 17.3388 21.343 17.0723L21.3597 9.72718C21.3597 9.3441 21.6762 9.0443 22.0594 9.06096C28.2907 9.42738 33.289 14.4907 33.5223 20.7532C33.5389 21.0197 33.7555 21.2362 34.0221 21.2362L41.353 21.2528C41.7362 21.2528 42.0361 21.5693 42.0194 21.9524C41.6529 28.3481 36.338 33.428 29.8568 33.428L29.8402 41.2562C29.8235 41.6392 29.5069 41.939 29.1237 41.9224Z" fill="#E60000"/>
<path fill-rule="evenodd" clip-rule="evenodd" d="M21.1084 21.0691C21.1084 20.0613 22.1889 19.4224 23.0719 19.9081L31.2272 24.3935C32.1425 24.8969 32.1425 26.212 31.2272 26.7154L23.0719 31.2008C22.1889 31.6865 21.1084 31.0477 21.1084 30.0399V21.0691Z" fill="white"/>
<path d="M53.0833 22.9212C53.0833 22.2889 53.2025 21.6957 53.441 21.1416C53.6795 20.5875 54.0022 20.1044 54.409 19.6923C54.8229 19.2732 55.3034 18.9428 55.8506 18.7013C56.3977 18.4597 56.9834 18.339 57.6077 18.339H64.5313V21.3974H57.6077C57.3973 21.3974 57.2009 21.4364 57.0185 21.5146C56.8361 21.5927 56.6748 21.7028 56.5345 21.8449C56.4012 21.9799 56.296 22.1398 56.2188 22.3245C56.1417 22.5092 56.1031 22.7081 56.1031 22.9212C56.1031 23.1344 56.1417 23.3368 56.2188 23.5286C56.296 23.7134 56.4012 23.8768 56.5345 24.0188C56.6748 24.1538 56.8361 24.2604 57.0185 24.3385C57.2009 24.4167 57.3973 24.4558 57.6077 24.4558H60.6276C61.2519 24.4558 61.8376 24.5765 62.3848 24.8181C62.9389 25.0525 63.4194 25.3793 63.8263 25.7985C64.2402 26.2105 64.5628 26.6972 64.7943 27.2584C65.0328 27.8125 65.1521 28.4057 65.1521 29.038C65.1521 29.6703 65.0328 30.2635 64.7943 30.8176C64.5628 31.3718 64.2402 31.8584 63.8263 32.2776C63.4194 32.6896 62.9389 33.0164 62.3848 33.258C61.8376 33.4995 61.2519 33.6203 60.6276 33.6203H53.925V30.5619H60.6276C60.838 30.5619 61.0344 30.5228 61.2168 30.4447C61.3992 30.3665 61.557 30.26 61.6903 30.125C61.8306 29.9829 61.9393 29.8195 62.0165 29.6348C62.0937 29.4501 62.1322 29.2511 62.1322 29.038C62.1322 28.8249 62.0937 28.626 62.0165 28.4413C61.9393 28.2565 61.8306 28.0967 61.6903 27.9617C61.557 27.8196 61.3992 27.7095 61.2168 27.6314C61.0344 27.5532 60.838 27.5141 60.6276 27.5141H57.6077C56.9834 27.5141 56.3977 27.3934 55.8506 27.1518C55.3034 26.9103 54.8229 26.5835 54.409 26.1714C54.0022 25.7523 53.6795 25.2656 53.441 24.7115C53.2025 24.1503 53.0833 23.5535 53.0833 22.9212Z" fill="white"/>
<path d="M72.2966 33.6203C71.6021 33.6203 70.9497 33.4889 70.3395 33.226C69.7292 32.956 69.1926 32.5902 68.7296 32.1284C68.2736 31.6595 67.9124 31.116 67.6458 30.498C67.3863 29.8799 67.2565 29.2192 67.2565 28.5159V25.1271H65.8571V22.2286H67.2565V17.6676H70.1185V22.2286H74.4746V25.1271H70.1185V28.5159C70.1185 28.8213 70.1746 29.1091 70.2869 29.379C70.3991 29.6419 70.5534 29.8728 70.7498 30.0717C70.9462 30.2706 71.1777 30.4305 71.4443 30.5512C71.7108 30.6649 71.9949 30.7217 72.2966 30.7217H74.4746V33.6203H72.2966Z" fill="white"/>
<path d="M78.9676 33.6203H76.095V22.2072H76.7895L77.7365 23.5606C78.1995 23.1344 78.7256 22.8076 79.3148 22.5802C79.904 22.3458 80.5143 22.2286 81.1456 22.2286H83.6815V25.1271H81.1456C80.844 25.1271 80.5599 25.1839 80.2934 25.2976C80.0268 25.4113 79.7953 25.5676 79.5989 25.7665C79.4025 25.9654 79.2482 26.1999 79.1359 26.4698C79.0237 26.7398 78.9676 27.0275 78.9676 27.333V33.6203Z" fill="white"/>
<path d="M89.2897 30.8283C89.402 30.8638 89.5142 30.8887 89.6264 30.9029C89.7387 30.91 89.8509 30.9136 89.9632 30.9136C90.2437 30.9136 90.5138 30.8745 90.7733 30.7963C91.0329 30.7182 91.2749 30.6081 91.4994 30.466C91.7309 30.3168 91.9343 30.1392 92.1097 29.9332C92.292 29.72 92.4393 29.4856 92.5516 29.2298L94.656 31.3718C94.3894 31.7554 94.0808 32.1 93.7301 32.4055C93.3863 32.7109 93.011 32.9702 92.6042 33.1834C92.2044 33.3965 91.78 33.5563 91.331 33.6629C90.8891 33.7766 90.4331 33.8334 89.9632 33.8334C89.1705 33.8334 88.4234 33.6842 87.7219 33.3858C87.0275 33.0875 86.4172 32.6719 85.8911 32.139C85.372 31.6062 84.9617 30.9739 84.66 30.2422C84.3584 29.5034 84.2076 28.6935 84.2076 27.8125C84.2076 26.9103 84.3584 26.0862 84.66 25.3402C84.9617 24.5943 85.372 23.9585 85.8911 23.4327C86.4172 22.907 87.0275 22.4985 87.7219 22.2072C88.4234 21.916 89.1705 21.7703 89.9632 21.7703C90.4331 21.7703 90.8926 21.8272 91.3415 21.9408C91.7905 22.0545 92.2149 22.2179 92.6147 22.431C93.0216 22.6442 93.4004 22.907 93.7511 23.2196C94.1018 23.5251 94.4105 23.8696 94.677 24.2533L89.2897 30.8283ZM90.7628 24.8287C90.6295 24.779 90.4963 24.747 90.363 24.7328C90.2367 24.7186 90.1034 24.7115 89.9632 24.7115C89.5703 24.7115 89.1985 24.7861 88.8478 24.9353C88.5041 25.0774 88.2025 25.2834 87.9429 25.5534C87.6904 25.8233 87.4905 26.1501 87.3432 26.5338C87.1958 26.9103 87.1222 27.3365 87.1222 27.8125C87.1222 27.9191 87.1257 28.0399 87.1327 28.1748C87.1467 28.3098 87.1643 28.4484 87.1853 28.5904C87.2134 28.7254 87.2449 28.8569 87.28 28.9847C87.3151 29.1126 87.3607 29.2263 87.4168 29.3257L90.7628 24.8287Z" fill="white"/>
<path d="M106.956 33.6203H106.262L105.147 32.0538C104.873 32.3024 104.582 32.5369 104.273 32.7571C103.972 32.9702 103.652 33.1585 103.316 33.3219C102.979 33.4782 102.632 33.6025 102.274 33.6949C101.923 33.7872 101.565 33.8334 101.201 33.8334C100.408 33.8334 99.661 33.6984 98.9595 33.4285C98.2651 33.1585 97.6548 32.7678 97.1287 32.2563C96.6096 31.7376 96.1992 31.1054 95.8976 30.3594C95.596 29.6135 95.4452 28.7645 95.4452 27.8125C95.4452 26.9245 95.596 26.1111 95.8976 25.3722C96.1992 24.6263 96.6096 23.9869 97.1287 23.454C97.6548 22.9212 98.2651 22.5092 98.9595 22.2179C99.661 21.9195 100.408 21.7703 101.201 21.7703C101.565 21.7703 101.927 21.8165 102.285 21.9089C102.642 22.0012 102.989 22.1291 103.326 22.2925C103.663 22.4559 103.982 22.6477 104.284 22.8679C104.592 23.0882 104.88 23.3262 105.147 23.5819L106.262 22.2286H106.956V33.6203ZM104.063 27.8125C104.063 27.4147 103.986 27.0311 103.831 26.6616C103.684 26.2851 103.481 25.9548 103.221 25.6706C102.961 25.3793 102.656 25.1484 102.306 24.9779C101.962 24.8003 101.594 24.7115 101.201 24.7115C100.808 24.7115 100.436 24.779 100.085 24.914C99.7417 25.049 99.44 25.2479 99.1805 25.5107C98.928 25.7736 98.728 26.1004 98.5807 26.4911C98.4334 26.8748 98.3598 27.3152 98.3598 27.8125C98.3598 28.3098 98.4334 28.7538 98.5807 29.1446C98.728 29.5282 98.928 29.8515 99.1805 30.1143C99.44 30.3772 99.7417 30.5761 100.085 30.7111C100.436 30.8461 100.808 30.9136 101.201 30.9136C101.594 30.9136 101.962 30.8283 102.306 30.6578C102.656 30.4802 102.961 30.2493 103.221 29.9651C103.481 29.6739 103.684 29.3435 103.831 28.9741C103.986 28.5976 104.063 28.2104 104.063 27.8125Z" fill="white"/>
<path d="M123.487 33.6203H120.624V26.3739C120.624 26.175 120.586 25.9867 120.509 25.8091C120.439 25.6315 120.337 25.4752 120.204 25.3402C120.07 25.2053 119.916 25.1022 119.741 25.0312C119.565 24.9531 119.379 24.914 119.183 24.914C118.987 24.914 118.801 24.9531 118.625 25.0312C118.457 25.1022 118.306 25.2053 118.173 25.3402C118.047 25.4752 117.945 25.6315 117.868 25.8091C117.798 25.9867 117.762 26.175 117.762 26.3739V33.6203H114.89V26.3739C114.89 26.175 114.851 25.9867 114.774 25.8091C114.704 25.6315 114.602 25.4752 114.469 25.3402C114.336 25.2053 114.181 25.1022 114.006 25.0312C113.831 24.9531 113.645 24.914 113.448 24.914C113.252 24.914 113.066 24.9531 112.891 25.0312C112.722 25.1022 112.572 25.2053 112.438 25.3402C112.312 25.4752 112.21 25.6315 112.133 25.8091C112.063 25.9867 112.028 26.175 112.028 26.3739V33.6203H109.155V22.2072H109.85L110.629 23.0811C111.028 22.7401 111.467 22.4772 111.944 22.2925C112.428 22.1007 112.929 22.0048 113.448 22.0048C113.975 22.0048 114.487 22.1042 114.985 22.3032C115.49 22.5021 115.932 22.8466 116.31 23.3368C116.486 23.0953 116.686 22.8893 116.91 22.7188C117.135 22.5482 117.37 22.4097 117.615 22.3032C117.868 22.1966 118.127 22.122 118.394 22.0794C118.66 22.0296 118.923 22.0048 119.183 22.0048C119.779 22.0048 120.337 22.1184 120.856 22.3458C121.382 22.5731 121.838 22.8857 122.224 23.2835C122.617 23.6743 122.925 24.1361 123.15 24.6689C123.374 25.2017 123.487 25.77 123.487 26.3739V33.6203Z" fill="white"/>
<path d="M137.428 18.339L132.472 33.6203H129.453L124.518 18.339H127.948L130.957 28.5372L133.977 18.339H137.428Z" fill="white"/>
<path d="M141.963 19.1062C141.963 19.3762 141.911 19.6284 141.805 19.8628C141.707 20.0973 141.57 20.3033 141.395 20.4809C141.22 20.6514 141.013 20.7899 140.774 20.8965C140.543 20.996 140.294 21.0457 140.027 21.0457C139.761 21.0457 139.508 20.996 139.27 20.8965C139.038 20.7899 138.835 20.6514 138.659 20.4809C138.491 20.3033 138.354 20.0973 138.249 19.8628C138.151 19.6284 138.102 19.3762 138.102 19.1062C138.102 18.8434 138.151 18.5947 138.249 18.3603C138.354 18.1187 138.491 17.9127 138.659 17.7422C138.835 17.5646 139.038 17.4261 139.27 17.3266C139.508 17.22 139.761 17.1667 140.027 17.1667C140.294 17.1667 140.543 17.22 140.774 17.3266C141.013 17.4261 141.22 17.5646 141.395 17.7422C141.57 17.9127 141.707 18.1187 141.805 18.3603C141.911 18.5947 141.963 18.8434 141.963 19.1062ZM141.469 33.6203H138.575V22.2072H141.469V33.6203Z" fill="white"/>
<path d="M154.948 27.8125C154.948 28.7077 154.797 29.5247 154.495 30.2635C154.193 31.0024 153.783 31.6382 153.264 32.171C152.745 32.6967 152.135 33.1052 151.433 33.3965C150.739 33.6878 149.992 33.8334 149.192 33.8334C148.399 33.8334 147.652 33.6842 146.951 33.3858C146.256 33.0875 145.646 32.6719 145.12 32.139C144.601 31.6062 144.19 30.9739 143.889 30.2422C143.587 29.5034 143.436 28.6935 143.436 27.8125V17.6676H146.319V22.9958C146.474 22.7969 146.66 22.6193 146.877 22.463C147.102 22.3067 147.34 22.1788 147.593 22.0794C147.852 21.9799 148.119 21.9053 148.392 21.8556C148.666 21.7987 148.932 21.7703 149.192 21.7703C149.992 21.7703 150.739 21.9231 151.433 22.2286C152.135 22.5269 152.745 22.9461 153.264 23.486C153.783 24.0259 154.193 24.6653 154.495 25.4042C154.797 26.1359 154.948 26.9387 154.948 27.8125ZM152.054 27.8125C152.054 27.3721 151.977 26.9636 151.822 26.587C151.675 26.2034 151.472 25.8731 151.212 25.596C150.953 25.3189 150.647 25.1022 150.297 24.9459C149.953 24.7897 149.585 24.7115 149.192 24.7115C148.799 24.7115 148.427 24.8003 148.077 24.9779C147.733 25.1484 147.431 25.3793 147.172 25.6706C146.912 25.9548 146.709 26.2851 146.561 26.6616C146.414 27.0311 146.34 27.4147 146.34 27.8125C146.34 28.253 146.414 28.6615 146.561 29.038C146.709 29.4145 146.912 29.7413 147.172 30.0184C147.431 30.2955 147.733 30.5157 148.077 30.6791C148.427 30.8354 148.799 30.9136 149.192 30.9136C149.585 30.9136 149.953 30.8354 150.297 30.6791C150.647 30.5157 150.953 30.2955 151.212 30.0184C151.472 29.7413 151.675 29.4145 151.822 29.038C151.977 28.6615 152.054 28.253 152.054 27.8125Z" fill="white"/>
<path d="M161.029 30.8283C161.142 30.8638 161.254 30.8887 161.366 30.9029C161.478 30.91 161.59 30.9136 161.703 30.9136C161.983 30.9136 162.253 30.8745 162.513 30.7963C162.772 30.7182 163.014 30.6081 163.239 30.466C163.47 30.3168 163.674 30.1392 163.849 29.9332C164.032 29.72 164.179 29.4856 164.291 29.2298L166.396 31.3718C166.129 31.7554 165.82 32.1 165.47 32.4055C165.126 32.7109 164.751 32.9702 164.344 33.1834C163.944 33.3965 163.52 33.5563 163.071 33.6629C162.629 33.7766 162.173 33.8334 161.703 33.8334C160.91 33.8334 160.163 33.6842 159.462 33.3858C158.767 33.0875 158.157 32.6719 157.631 32.139C157.112 31.6062 156.701 30.9739 156.4 30.2422C156.098 29.5034 155.947 28.6935 155.947 27.8125C155.947 26.9103 156.098 26.0862 156.4 25.3402C156.701 24.5943 157.112 23.9585 157.631 23.4327C158.157 22.907 158.767 22.4985 159.462 22.2072C160.163 21.916 160.91 21.7703 161.703 21.7703C162.173 21.7703 162.632 21.8272 163.081 21.9408C163.53 22.0545 163.954 22.2179 164.354 22.431C164.761 22.6442 165.14 22.907 165.491 23.2196C165.841 23.5251 166.15 23.8696 166.417 24.2533L161.029 30.8283ZM162.502 24.8287C162.369 24.779 162.236 24.747 162.103 24.7328C161.976 24.7186 161.843 24.7115 161.703 24.7115C161.31 24.7115 160.938 24.7861 160.587 24.9353C160.244 25.0774 159.942 25.2834 159.682 25.5534C159.43 25.8233 159.23 26.1501 159.083 26.5338C158.935 26.9103 158.862 27.3365 158.862 27.8125C158.862 27.9191 158.865 28.0399 158.872 28.1748C158.886 28.3098 158.904 28.4484 158.925 28.5904C158.953 28.7254 158.984 28.8569 159.02 28.9847C159.055 29.1126 159.1 29.2263 159.156 29.3257L162.502 24.8287Z" fill="white"/>
</svg>
